<svg xmlns="http://www.w3.org/2000/svg" xmlns:xlink="http://www.w3.org/1999/xlink" fill="none" version="1.1" width="30.600000381469727" height="30.96000099182129" viewBox="0 0 30.600000381469727 30.96000099182129"><g><path d="M28.832,13.6912L21.046,13.072L26.112,7.0864C26.792,6.3984,26.792,5.2288,26.112,4.5408C25.432,3.8528,24.276,3.8528,23.596,4.5408L17.68,9.6664L17.068,1.7888C17.068,0.7912,16.286,0,15.3,0C14.314,0,13.532,0.7912,13.532,1.7888L12.92,9.6664L7.004,4.5408C6.324,3.8528,5.168,3.8528,4.488,4.5408C3.808,5.2288,3.808,6.3984,4.488,7.0864L9.554,13.072L1.768,13.6912C0.782,13.6912,0,14.4824,0,15.48C0,15.9616,0.204,16.4432,0.51,16.7528C0.816,17.0624,1.292,17.2688,1.768,17.2688L9.554,17.888L4.488,23.8736C3.808,24.5616,3.808,25.7312,4.488,26.4192C4.828,26.7632,5.304,26.9352,5.746,26.9352C6.188,26.9352,6.664,26.7632,7.004,26.4192L12.92,21.2936L13.532,29.1712C13.532,29.6528,13.736,30.1344,14.042,30.444C14.348,30.7536,14.824,30.96,15.3,30.96C16.286,30.96,17.068,30.1688,17.068,29.1712L17.68,21.2936L23.596,26.4192C23.936,26.7632,24.412,26.9352,24.854,26.9352C25.296,26.9352,25.772,26.7632,26.112,26.4192C26.792,25.7312,26.792,24.5616,26.112,23.8736L21.046,17.888L28.832,17.2688C29.818,17.2688,30.6,16.4776,30.6,15.48C30.6,14.4824,29.818,13.6912,28.832,13.6912Z" fill="#FF0000" fill-opacity="1"/></g></svg>