<?xml version="1.0" encoding="UTF-8" standalone="no"?>
<!-- Created with Inkscape (http://www.inkscape.org/) -->

<svg
   width="400"
   height="180"
   viewBox="0 0 105.83333 47.625"
   version="1.1"
   id="svg1"
   sodipodi:docname="lelong_logo.svg"
   inkscape:version="1.3.2 (1:1.3.2+202404261509+091e20ef0f)"
   xmlns:inkscape="http://www.inkscape.org/namespaces/inkscape"
   xmlns:sodipodi="http://sodipodi.sourceforge.net/DTD/sodipodi-0.dtd"
   xmlns="http://www.w3.org/2000/svg"
   xmlns:svg="http://www.w3.org/2000/svg">
  <sodipodi:namedview
     id="namedview1"
     pagecolor="#505050"
     bordercolor="#eeeeee"
     borderopacity="1"
     inkscape:showpageshadow="0"
     inkscape:pageopacity="0"
     inkscape:pagecheckerboard="0"
     inkscape:deskcolor="#505050"
     inkscape:zoom="3.095"
     inkscape:cx="200"
     inkscape:cy="90.145396"
     inkscape:window-width="1920"
     inkscape:window-height="1011"
     inkscape:window-x="0"
     inkscape:window-y="0"
     inkscape:window-maximized="1"
     inkscape:current-layer="svg1" />
  <defs
     id="defs1" />
  <g
     id="layer1"
     transform="translate(-7.4083337)">
    <g
       id="g2"
       transform="matrix(0.11196231,0,0,0.11196231,6.1040247,9.8142929)">
      <path
         d="m 172.78,62.7 2.96,0.28 5.8,1.25 2.88,0.73 5.55,2.11 2.73,1.16 5.16,2.92 2.52,1.55 4.65,3.68 2.25,1.93 4,4.37 5.14,7.29 0.63,1.07 1.03,1.91 0.49,0.92 0.77,1.65 0.35,0.79 0.51,1.42 0.22,0.68 0.26,1.22 0.09,0.59 v 1.06 l -0.03,0.51 -0.24,0.94 -1.63,2.49 -0.27,0.27 -0.98,0.77 -0.57,0.43 -1.67,1.13 -0.94,0.63 -2.51,1.6 -0.69,0.43 -1.56,0.96 -0.81,0.5 -1.81,1.11 -0.94,0.57 -2.09,1.27 -1.09,0.65 -2.38,1.43 -1.23,0.73 -2.69,1.6 -1.39,0.83 -3.02,1.79 -1.55,0.91 -3.36,1.99 -1.73,1.02 -3.72,2.19 -1.91,1.12 -4.11,2.41 -6.6,3.87 -1.82,1.07 -3.37,2.01 -1.61,0.97 -2.71,1.68 -0.62,0.39 -1.08,0.68 -0.5,0.32 -0.81,0.54 -0.37,0.24 -0.5,0.37 -0.37,0.32 -0.13,0.2 0.15,0.57 0.13,0.31 0.59,0.71 0.34,0.38 0.95,0.81 0.51,0.41 1.21,0.84 1.26,0.84 2.92,1.51 4.27,1.53 1.66,0.37 3.36,0.2 1.68,0.01 3.37,-0.49 1.67,-0.33 3.3,-1.14 1.63,-0.65 3.17,-1.75 1.56,-0.94 2.96,-2.32 1.46,-1.22 2.7,-2.84 1.31,-1.49 2.37,-3.33 3.11,-5.49 0.39,-0.82 0.74,-1.34 0.37,-0.63 0.77,-0.98 0.4,-0.44 0.87,-0.63 0.46,-0.28 1.08,-0.3 0.56,-0.11 1.35,0.02 0.71,0.04 1.71,0.32 0.91,0.19 2.15,0.6 3.82,1.2 1.33,0.44 2.19,0.75 1.03,0.35 1.65,0.63 0.76,0.3 1.17,0.58 0.54,0.28 0.76,0.59 0.34,0.29 0.43,0.66 0.18,0.35 0.17,0.79 0.06,0.42 -0.02,1 -0.16,1.8 -0.11,0.98 -0.47,2.1 -0.27,1.07 -0.78,2.24 -0.43,1.13 -1.06,2.35 -0.56,1.17 -1.31,2.39 -1.38,2.4 -3.4,4.75 -5.86,6.68 -1.18,1.18 -2.36,2.14 -1.18,1.04 -2.38,1.86 -2.38,1.81 -4.97,2.87 -2.53,1.32 -5.46,2 -1.41,0.46 -2.95,0.76 -4.67,0.97 -1.22,0.21 -2.08,0.34 -0.99,0.16 -1.71,0.25 -1.65,0.22 -2.75,0.15 -1.37,0.02 -2.94,-0.23 -0.8,-0.08 -1.81,-0.22 -0.94,-0.12 -2.21,-0.32 -2.84,-0.4 -5.53,-1.51 -2.73,-0.86 -5.24,-2.36 -2.57,-1.27 -4.87,-3.14 -2.37,-1.65 -4.41,-3.83 -2.14,-1.99 -3.87,-4.44 -1.86,-2.3 -3.25,-4.98 -1.53,-2.55 -2.54,-5.45 -2.93,-8.61 -0.23,-0.89 -0.39,-2.12 -0.18,-1.11 -0.28,-2.46 -0.25,-2.52 -0.19,-5.52 -0.04,-2.75 0.26,-5.25 0.09,-1.24 0.27,-2.27 0.53,-2.94 0.61,-2.54 1.77,-4.91 0.98,-2.43 2.45,-4.64 1.3,-2.28 3.06,-4.3 1.59,-2.09 3.58,-3.87 1.85,-1.87 4.03,-3.37 2.06,-1.61 4.41,-2.79 2.24,-1.31 4.7,-2.13 7.31,-2.37 2.93,-0.7 5.94,-0.65 2.97,-0.2 M 53.16,45.46 l 1.27,1.11 0.17,0.17 0.29,0.62 0.14,0.37 0.23,1.2 0.1,0.7 0.17,2.03 0.04,0.57 0.07,1.34 0.04,0.71 0.05,1.63 0.03,0.86 0.05,1.95 0.02,1.03 0.04,2.3 0.02,1.21 0.02,2.69 0.02,1.4 0.02,3.11 0.01,1.61 0.01,3.55 0.01,1.84 0.01,4.03 v 2.08 L 56,88.1 v 7.42 47.37 l 4.82,5.61 22.84,0.26 3.14,0.04 5.83,0.1 1.39,0.03 2.6,0.05 1.26,0.04 2.28,0.06 1.09,0.03 1.89,0.07 0.89,0.03 1.43,0.07 0.66,0.04 0.91,0.06 0.72,0.1 0.11,0.04 0.2,0.39 0.09,0.24 0.17,0.74 0.08,0.42 0.15,1.06 0.06,0.56 0.12,1.31 0.11,1.37 0.14,3.29 0.06,1.7 0.03,3.63 0.01,1.82 -0.08,3.56 -0.05,1.74 -0.18,3.07 -0.06,0.72 -0.12,1.27 -0.07,0.61 -0.15,1.01 -0.09,0.46 -0.18,0.69 -0.3,0.62 -0.05,0.05 -0.3,0.08 -0.19,0.04 -0.58,0.09 -0.65,0.08 -2.04,0.14 -1.13,0.07 -2.9,0.13 -1.55,0.06 -3.61,0.1 -1.88,0.05 -4.17,0.08 -2.15,0.04 -4.6,0.06 -4.67,0.06 -9.98,0.04 -5,0.02 -9.76,-0.05 -2.37,-0.02 -4.49,-0.05 -2.2,-0.03 -4.03,-0.07 -1.95,-0.04 -3.43,-0.1 -1.62,-0.05 -2.68,-0.13 -1.23,-0.06 -1.78,-0.15 -0.38,-0.04 -0.57,-0.08 -0.25,-0.04 -0.29,-0.09 -0.61,-0.24 -1.25,-0.96 -1.39,-1.67 -0.06,-0.09 -0.09,-0.54 -0.05,-0.32 -0.09,-0.96 -0.05,-0.52 -0.08,-1.36 -0.04,-0.72 -0.08,-1.73 -0.04,-0.9 -0.07,-2.06 -0.03,-1.07 -0.06,-2.38 -0.03,-1.22 -0.06,-2.65 -0.03,-1.36 -0.05,-2.9 -0.04,-2.96 -0.08,-6.55 -0.03,-3.36 -0.05,-7.18 -0.02,-3.65 -0.02,-7.57 -0.01,-3.81 0.01,-7.74 v -3.86 l 0.03,-7.66 0.02,-3.8 0.06,-7.36 0.03,-3.62 0.08,-6.82 0.04,-3.32 0.11,-6.05 0.03,-1.45 0.06,-2.72 0.03,-1.33 0.07,-2.45 0.03,-1.19 0.07,-2.15 0.04,-1.03 0.08,-1.82 0.04,-0.86 0.08,-1.46 0.05,-0.68 0.09,-1.07 0.04,-0.48 0.1,-0.65 0.15,-0.47 0.06,-0.05 0.4,-0.15 0.25,-0.08 0.74,-0.21 0.41,-0.12 1.03,-0.26 0.54,-0.13 1.27,-0.3 1.32,-0.31 3.17,-0.7 1.63,-0.36 3.51,-0.73 1.76,-0.37 3.47,-0.69 1.7,-0.33 3.05,-0.57 1.44,-0.26 2.25,-0.36 0.5,-0.08 0.77,-0.1 0.8,-0.06 h 0.15 m 108.64,49.22 -1,0.13 -1.93,0.47 -0.94,0.27 -1.8,0.73 -0.87,0.39 -1.64,0.97 -0.8,0.52 -1.47,1.2 -0.71,0.64 -1.27,1.42 -0.62,0.74 -1.07,1.64 -1.35,2.67 -0.5,1.22 -0.83,2.87 -0.37,1.45 -0.47,2.79 -0.09,0.65 -0.1,1.19 -0.03,0.56 0.02,0.92 0.02,0.41 0.16,0.57 0.39,0.36 h 0.08 l 0.48,-0.2 0.29,-0.13 0.87,-0.44 0.49,-0.24 1.23,-0.65 0.65,-0.35 1.53,-0.84 0.8,-0.44 1.78,-1 0.92,-0.51 1.99,-1.13 2.03,-1.16 4.48,-2.61 2.27,-1.33 4.15,-2.5 0.99,-0.6 1.82,-1.13 0.88,-0.54 1.57,-1 0.75,-0.48 1.27,-0.83 0.6,-0.4 0.93,-0.64 0.42,-0.3 0.55,-0.43 0.34,-0.37 v -0.22 l -0.38,-0.48 -0.25,-0.25 -0.8,-0.52 -0.44,-0.26 -1.13,-0.53 -0.6,-0.26 -1.36,-0.49 -1.4,-0.48 -3.1,-0.74 -4.33,-0.5 h -1.06 z"
         id="path1" />
      <path
         d="m 585.5,218.42 -1.74,-0.42 -3.23,-0.86 -1.58,-0.43 -2.92,-0.88 -1.42,-0.44 -2.63,-0.92 -1.28,-0.46 -2.37,-0.96 -2.3,-0.97 -3.91,-2.11 -4.97,-3.5 -0.64,-0.54 -1.02,-1.05 -0.46,-0.52 -0.63,-1.04 -0.27,-0.53 -0.25,-1.07 -0.08,-0.54 0.14,-1.14 0.12,-0.58 0.54,-1.25 0.32,-0.65 0.95,-1.4 0.52,-0.72 1.36,-1.58 2.53,-2.64 0.92,-0.91 1.77,-1.6 0.86,-0.76 1.56,-1.21 0.74,-0.55 1.21,-0.73 1.31,-0.46 h 0.29 l 0.99,0.21 0.55,0.14 1.38,0.44 4.77,1.9 1.32,0.6 2.17,0.84 1.06,0.37 2.23,0.44 0.6,0.1 1.34,0.13 0.7,0.06 1.61,0.07 0.85,0.04 1.99,0.03 3.5,0.02 h 1.56 l 2.69,-0.04 1.27,-0.03 2.21,-0.12 1.06,-0.07 1.85,-0.25 0.9,-0.14 1.61,-0.39 1.58,-0.44 2.94,-1.46 0.76,-0.43 1.61,-1.04 2.68,-1.88 1.02,-0.74 1.99,-2.02 0.97,-1.06 1.68,-2.37 0.79,-1.18 1.11,-2.29 0.23,-0.55 0.3,-1.01 0.19,-1.34 v -0.51 l -0.09,-0.61 -0.09,-0.22 -0.59,0.04 -0.2,0.06 -0.57,0.27 -0.32,0.15 -0.84,0.48 -0.46,0.26 -1.17,0.7 -2.19,1.31 -1.93,1.16 -3.77,1.82 -1.89,0.83 -3.83,1.2 -1.95,0.52 -4.1,0.63 -6.66,0.36 h -2 l -3.89,-0.3 -1.94,-0.2 -3.75,-0.67 -1.87,-0.37 -3.6,-1.03 -1.78,-0.55 -3.44,-1.36 -1.69,-0.72 -3.25,-1.68 -1.6,-0.88 -3.04,-1.99 -1.5,-1.03 -2.82,-2.27 -1.38,-1.17 -2.59,-2.54 -1.26,-1.3 -2.34,-2.79 -1.13,-1.43 -2.06,-3.02 -1,-1.54 -1.78,-3.25 -0.85,-1.65 -1.47,-3.44 -0.7,-1.75 -1.15,-3.63 -0.54,-1.83 -0.82,-3.8 -0.36,-1.92 -0.47,-3.94 -0.28,-6.07 v -2.15 l 0.26,-4.16 0.18,-2.06 0.61,-3.97 0.35,-1.97 0.97,-3.78 0.53,-1.87 1.32,-3.6 0.71,-1.78 1.68,-3.43 0.88,-1.69 2.04,-3.25 1.06,-1.6 2.4,-3.09 4.01,-4.44 1.16,-1.17 2.43,-2.17 1.23,-1.05 2.55,-1.93 2.58,-1.87 5.46,-3.02 2.76,-1.39 5.74,-2.03 2.89,-0.89 5.87,-1.03 2.95,-0.39 5.89,-0.02 2.93,0.12 5.78,1.02 1.42,0.32 2.82,0.84 1.4,0.45 2.74,1.11 1.35,0.58 2.65,1.37 3.85,2.36 0.82,0.56 1.52,0.94 0.72,0.44 1.24,0.66 0.56,0.28 0.82,0.3 0.59,-0.02 0.28,-0.81 0.62,-1.41 0.33,-0.67 0.74,-1.15 0.39,-0.55 0.9,-0.93 0.48,-0.44 1.12,-0.73 0.58,-0.34 1.37,-0.56 0.73,-0.26 1.67,-0.42 0.88,-0.19 2.02,-0.3 3.48,-0.34 1.51,-0.11 2.44,-0.26 1.13,-0.09 1.77,0.19 0.4,0.1 0.7,0.38 0.34,0.22 0.57,0.68 0.26,0.38 0.45,1.04 0.22,0.58 0.34,1.47 0.16,0.8 0.26,1.97 0.11,1.06 0.18,2.54 0.08,1.35 0.11,3.18 0.05,1.67 0.06,3.88 0.03,2.04 0.02,4.65 0.01,2.42 0.01,5.49 -0.01,2.86 v 6.39 l -0.01,10.68 v 2.52 4.72 l -0.01,2.31 v 4.3 l -0.01,2.11 -0.01,3.92 -0.01,1.91 -0.02,3.55 -0.01,1.72 -0.03,3.2 -0.02,1.55 -0.03,2.86 -0.02,1.39 -0.04,2.54 -0.02,1.23 -0.05,2.25 -0.03,1.09 -0.06,1.97 -0.03,0.95 -0.07,1.72 -0.07,1.65 -0.16,2.61 -0.09,1.2 -0.21,1.84 -0.37,2.03 -0.59,2.39 -1.59,4.54 -0.86,2.23 -2.1,4.19 -1.12,2.04 -2.6,3.82 -1.35,1.86 -3.07,3.43 -1.59,1.66 -3.52,3.01 -1.82,1.45 -3.95,2.58 -2.03,1.23 -4.36,2.11 -6.97,2.64 -0.75,0.23 -2.07,0.44 -1.12,0.22 -2.65,0.39 -1.38,0.19 -3,0.34 -1.52,0.16 -3.13,0.25 -1.55,0.12 -3.02,0.16 -1.48,0.06 -2.69,0.05 -1.28,0.01 -2.14,-0.09 -0.98,-0.06 m 19.55,-70.17 1.33,-0.56 2.73,-1.74 1.37,-0.95 2.62,-2.36 1.27,-1.24 2.27,-2.75 2.72,-4.3 0.63,-1.24 0.97,-2.54 0.43,-1.27 0.59,-2.55 0.24,-1.28 0.22,-2.55 0.07,-1.27 -0.12,-2.51 -0.1,-1.25 -0.44,-2.45 -0.26,-1.21 -0.75,-2.35 -0.4,-1.16 -1.03,-2.23 -0.55,-1.1 -1.29,-2.07 -0.68,-1.01 -1.53,-1.9 -0.8,-0.92 -1.76,-1.67 -0.91,-0.81 -1.96,-1.44 -1,-0.68 -2.15,-1.17 -1.1,-0.54 -2.31,-0.87 -1.18,-0.39 -2.46,-0.53 -1.25,-0.22 -2.58,-0.18 -4,0.18 -1.66,0.2 -2.81,0.61 -1.35,0.35 -2.39,1.03 -1.17,0.58 -2.26,1.6 -3.55,3.17 -1.34,1.34 -2.19,3.12 -1,1.61 -1.5,3.54 -0.66,1.81 -0.82,3.8 -0.32,1.92 -0.13,3.91 0.01,1.96 0.55,3.87 0.35,1.91 1.22,3.67 0.7,1.8 1.89,3.32 3.61,4.41 1.27,1.23 2.59,1.94 1.32,0.89 2.78,1.29 1.43,0.57 3.12,0.69 5.19,0.42 1.88,0.01 3.89,-0.42 0.92,-0.13 1.63,-0.34 0.77,-0.18 m 174.98,41.9 -0.48,-0.48 -0.5,-1.36 -0.17,-0.76 0.12,-2.04 0.07,-0.56 0.26,-1.27 0.16,-0.67 0.42,-1.49 0.23,-0.78 0.59,-1.74 1.07,-2.9 2.97,-7.71 -7.97,-19.94 -1.1,-2.74 -2,-5.12 -0.47,-1.23 -0.88,-2.3 -0.42,-1.12 -0.76,-2.03 -0.36,-0.98 -0.61,-1.69 -0.29,-0.81 -0.45,-1.31 -0.2,-0.6 -0.27,-0.86 -0.16,-0.73 v -0.83 l 0.67,-1.45 0.44,-0.68 1.46,-1.08 0.81,-0.49 2.13,-0.65 3.82,-0.4 h 0.85 l 1.48,0.1 0.7,0.07 1.23,0.28 0.59,0.17 1.03,0.52 0.5,0.3 0.89,0.82 0.43,0.45 0.81,1.19 0.4,0.64 0.78,1.6 0.39,0.86 0.81,2.07 1.31,3.71 0.38,1.14 0.75,2.12 0.38,1.01 0.67,1.72 0.32,0.8 0.52,1.13 0.52,0.84 0.1,0.07 0.45,-0.61 0.26,-0.41 0.69,-1.42 0.37,-0.8 0.85,-2.03 1.34,-3.55 0.51,-1.44 0.92,-2.42 0.44,-1.14 0.81,-1.87 0.4,-0.87 0.78,-1.38 0.39,-0.64 0.81,-0.97 0.41,-0.43 0.92,-0.63 0.47,-0.27 1.09,-0.36 0.56,-0.14 1.32,-0.15 2.32,-0.08 h 0.88 l 1.57,0.1 0.75,0.06 1.33,0.24 0.64,0.13 1.08,0.36 0.51,0.2 0.85,0.5 0.39,0.26 0.6,0.63 0.27,0.34 0.37,0.76 0.15,0.4 0.12,0.9 -0.09,1.5 -0.04,0.24 -0.31,1.07 -0.2,0.63 -0.59,1.76 -0.33,0.96 -0.83,2.35 -0.44,1.24 -1.03,2.84 -0.54,1.47 -1.19,3.21 -0.61,1.64 -1.3,3.49 -1.33,3.54 -2.84,7.44 -1.42,3.72 -2.78,7.17 -0.68,1.74 -1.29,3.28 -0.63,1.59 -1.17,2.93 -0.56,1.4 -1.01,2.46 -0.48,1.17 -0.79,1.89 -0.38,0.87 -0.55,1.22 -0.52,0.96 -0.17,0.22 -0.84,0.35 -0.48,0.17 -1.32,0.25 -1.4,0.22 -3.52,0.14 -1.76,0.02 -3.21,-0.3 -0.72,-0.1 -1.14,-0.28 -0.51,-0.16 m -443.6,-8.37 -2.67,-0.23 -5.17,-0.92 -2.55,-0.54 -4.9,-1.52 -2.42,-0.84 -4.59,-2.11 -2.25,-1.12 -4.23,-2.64 -2.07,-1.39 -3.83,-3.16 -1.86,-1.64 -3.37,-3.64 -1.63,-1.88 -2.87,-4.09 -3.7,-6.6 -1.08,-2.28 -1.61,-4.23 -0.72,-2.11 -0.96,-4.35 -0.21,-1.12 -0.31,-2.38 -0.14,-1.22 -0.19,-2.63 -0.09,-1.35 -0.08,-2.95 -0.02,-4.88 0.01,-1.34 0.03,-2.33 0.03,-1.12 0.07,-1.95 0.08,-1.87 0.32,-2.99 0.19,-1.43 0.61,-2.63 1.35,-4.31 0.8,-2.31 2,-4.4 1.07,-2.16 2.51,-4.09 1.31,-2 2.96,-3.73 1.54,-1.81 3.38,-3.33 1.74,-1.62 3.75,-2.89 1.92,-1.39 4.09,-2.43 2.08,-1.15 4.37,-1.9 6.84,-2.25 0.96,-0.25 2.4,-0.4 1.27,-0.19 2.89,-0.28 1.49,-0.13 3.2,-0.16 1.63,-0.06 3.35,-0.04 3.36,-0.01 6.41,0.36 1.52,0.12 2.76,0.33 3.53,0.64 1.94,0.46 3.84,1.29 1.92,0.7 3.75,1.72 1.85,0.92 3.58,2.1 1.77,1.1 3.35,2.44 1.64,1.26 3.05,2.73 1.48,1.39 2.68,2.96 1.3,1.51 2.25,3.14 2.83,4.86 1,2.04 1.68,4.14 0.79,2.08 1.26,4.21 0.57,2.1 0.84,4.24 0.37,2.11 0.44,4.24 0.17,2.11 0.03,4.2 -0.03,2.09 -0.35,4.14 -0.22,2.06 -0.73,4.04 -0.41,2.01 -1.09,3.92 -0.6,1.94 -1.45,3.76 -0.77,1.86 -1.81,3.58 -0.94,1.77 -2.15,3.36 -1.11,1.65 -2.48,3.11 -1.28,1.52 -2.8,2.84 -1.43,1.38 -3.11,2.52 -1.6,1.22 -3.41,2.19 -5.45,2.86 -2.76,1.26 -5.47,1.87 -2.75,0.84 -5.64,1.08 -2.86,0.44 -6.08,0.3 -1.56,0.04 -3.24,-0.08 -1.65,-0.05 m 11.43,-34.68 1.35,-0.4 2.49,-1.11 1.2,-0.6 2.18,-1.48 1.05,-0.77 1.87,-1.79 0.9,-0.93 1.56,-2.05 0.74,-1.06 1.25,-2.27 0.58,-1.15 0.93,-2.44 0.42,-1.23 0.61,-2.55 0.26,-1.29 0.28,-2.62 0.1,-1.31 -0.05,-2.64 -0.07,-1.32 -0.38,-2.61 -0.23,-1.29 -0.73,-2.53 -0.4,-1.25 -1.06,-2.4 -0.57,-1.18 -1.41,-2.22 -0.74,-1.08 -1.76,-2 -0.92,-0.96 -2.1,-1.72 -3.56,-2.21 -0.66,-0.34 -1.62,-0.54 -0.84,-0.26 -1.92,-0.37 -1.96,-0.34 -4.37,-0.16 h -2.18 l -4.15,0.5 -0.99,0.17 -1.78,0.47 -2.27,0.88 -1.13,0.57 -2.33,1.73 -1.16,0.93 -2.22,2.25 -1.07,1.17 -1.87,2.52 -2.17,3.82 -0.3,0.68 -0.47,1.73 -0.21,0.91 -0.31,2.09 -0.27,2.16 -0.04,4.83 0.06,2.41 0.58,4.52 0.18,1.06 0.48,1.87 0.89,2.31 0.75,1.46 1.92,2.67 1.02,1.29 2.38,2.28 1.23,1.08 2.74,1.79 4.38,2.03 1.65,0.57 2.66,0.72 1.26,0.29 2.28,0.18 1.14,0.02 2.45,-0.36 1.3,-0.24 m -109.48,30.3 -0.23,-0.17 -0.39,-0.49 -0.19,-0.31 -0.29,-1.11 -0.07,-0.33 -0.12,-0.88 -0.06,-0.47 -0.11,-1.18 -0.05,-0.64 -0.09,-1.56 -0.04,-0.83 -0.07,-1.98 -0.04,-1.06 -0.06,-2.47 -0.03,-1.31 -0.05,-3.02 -0.03,-1.58 -0.04,-3.63 -0.02,-1.89 -0.04,-4.29 -0.02,-2.23 -0.03,-5 -0.02,-2.6 -0.03,-5.79 -0.01,-2.99 -0.03,-6.62 -0.05,-10.93 -0.02,-3.75 -0.02,-6.85 -0.02,-3.32 -0.02,-6.05 -0.01,-2.93 -0.01,-5.29 v -2.55 l -0.01,-4.6 v -2.21 l 0.01,-3.94 v -1.89 l 0.02,-3.35 0.01,-1.6 0.04,-2.8 0.01,-1.34 0.05,-2.3 0.03,-1.1 0.06,-1.87 0.03,-0.89 0.08,-1.48 0.04,-0.7 0.09,-1.14 0.05,-0.54 0.12,-0.87 0.12,-0.8 0.3,-0.99 0.55,-0.96 0.34,-0.43 1.14,-0.75 0.66,-0.37 2.01,-0.73 0.57,-0.19 1.37,-0.38 0.72,-0.2 1.7,-0.41 0.89,-0.21 2.06,-0.45 3.56,-0.75 13.24,-2.69 2.26,2.25 2.25,2.26 v 66.06 66.06 l -2.36,1.91 -0.51,0.41 -1.16,0.59 -0.65,0.25 -1.85,0.33 -0.53,0.06 -1.3,0.1 -0.69,0.05 -1.66,0.05 -0.88,0.03 -2.1,0.03 -3.73,0.01 h -1.17 l -2.09,-0.02 -1.01,-0.01 -1.78,-0.04 -0.85,-0.03 -1.48,-0.07 -0.71,-0.04 -1.21,-0.11 -1.15,-0.11 -1.62,-0.32 -0.7,-0.19 m 180.38,0.24 -0.49,-0.13 -1.06,-0.93 -1.2,-1.89 -0.03,-0.09 -0.07,-0.42 -0.03,-0.26 -0.06,-0.74 -0.04,-0.4 -0.06,-1.04 -0.03,-0.56 -0.05,-1.32 -0.03,-0.7 -0.06,-1.6 -0.02,-0.83 -0.06,-1.86 -0.05,-1.92 -0.08,-4.56 -0.05,-2.39 -0.07,-5.42 -0.03,-2.8 -0.05,-6.17 -0.02,-3.16 -0.03,-6.8 -0.02,-10.8 v -3.52 -6.35 -3.07 -5.51 -2.66 l 0.02,-4.73 v -2.28 l 0.03,-4.01 0.02,-1.93 0.06,-3.35 0.03,-1.61 0.08,-2.76 0.04,-1.31 0.12,-2.23 0.07,-1.05 0.16,-1.75 0.09,-0.82 0.21,-1.34 0.11,-0.63 0.27,-0.98 0.14,-0.46 0.33,-0.69 0.17,-0.32 0.4,-0.47 0.41,-0.42 1.06,-0.4 2,-0.45 0.74,-0.16 2.03,-0.5 2.91,-0.77 1.63,-0.46 2.95,-0.63 1.42,-0.27 2.42,-0.25 1.13,-0.08 1.77,0.13 1.77,0.66 0.46,0.37 1,1.46 0.5,0.81 0.93,1.96 0.44,0.99 0.65,1.98 0.43,2.47 v 0.67 l 0.19,0.76 0.15,0.28 0.64,-0.09 0.2,-0.07 0.53,-0.33 0.29,-0.2 0.71,-0.57 0.39,-0.31 0.93,-0.82 1.68,-1.53 1.49,-1.37 3.37,-2.37 1.75,-1.11 3.79,-1.85 1.94,-0.86 4.11,-1.31 2.08,-0.59 4.29,-0.77 2.16,-0.31 4.36,-0.19 2.18,-0.03 4.32,0.39 2.15,0.27 4.15,0.99 5.92,2.19 1.87,0.87 3.84,2.52 1.9,1.36 3.63,3.24 1.75,1.67 3.03,3.57 0.71,0.9 1.23,1.8 1.54,2.66 0.7,1.4 1.17,2.53 0.55,1.25 0.9,2.48 0.42,1.27 0.67,2.75 0.31,1.43 0.47,3.34 0.22,1.78 0.32,4.25 0.08,1.13 0.12,2.5 0.06,1.29 0.1,2.83 0.05,1.47 0.08,3.21 0.03,1.66 0.07,3.63 0.03,1.87 0.05,4.09 0.08,6.7 0.03,2.4 0.03,4.67 0.02,2.3 0.02,4.38 0.01,2.14 v 4 1.94 l -0.01,3.51 -0.01,1.68 -0.03,2.93 -0.02,1.37 -0.04,2.24 -0.03,1.02 -0.06,1.44 -0.1,1.16 -0.15,0.61 -0.35,1.02 -0.19,0.48 -0.48,0.79 -0.27,0.36 -0.72,0.58 -0.39,0.27 -1.05,0.41 -0.57,0.18 -1.46,0.26 -0.79,0.12 -1.98,0.14 -1.06,0.07 -2.58,0.06 -4.66,0.03 h -1.78 l -3.42,-0.08 -1.65,-0.05 -2.89,-0.17 -1.36,-0.1 -2.05,-0.23 -0.44,-0.07 -0.68,-0.13 -0.66,-0.21 -0.23,-0.12 -0.38,-0.33 -0.18,-0.19 -0.29,-0.65 -0.13,-0.38 -0.21,-1.2 -0.1,-0.69 -0.14,-1.97 -0.03,-0.56 -0.05,-1.29 -0.03,-0.68 -0.04,-1.57 -0.02,-0.83 -0.02,-1.87 -0.02,-0.98 -0.02,-2.21 -0.01,-1.15 -0.01,-2.57 -0.01,-1.33 v -2.96 L 492,154.89 v -3.38 -5.58 -2.27 -4.15 l -0.01,-2 -0.01,-3.64 -0.01,-1.76 -0.02,-3.18 -0.02,-1.53 -0.05,-2.76 -0.03,-1.32 -0.07,-2.37 -0.04,-1.14 -0.11,-2.02 -0.06,-0.98 -0.14,-1.72 -0.08,-0.82 -0.19,-1.46 -0.2,-1.4 -0.56,-2.17 -0.31,-1.01 -0.81,-1.63 -0.44,-0.78 -1.1,-1.42 -2.04,-2.23 -0.83,-0.87 -1.8,-1.46 -0.91,-0.69 -1.93,-1.11 -0.98,-0.51 -2.03,-0.75 -1.02,-0.32 -2.08,-0.38 -1.04,-0.14 h -2.1 l -1.04,0.05 -2.08,0.38 -1.03,0.24 -2.01,0.76 -2.9,1.59 -1.21,0.81 -2.65,2.37 -0.62,0.61 -1.12,1.21 -1.32,1.67 -2.5,3.72 -0.5,33.57 -0.03,2.31 -0.09,4.47 -0.04,2.21 -0.1,4.18 -0.05,2.05 -0.11,3.81 -0.06,1.84 -0.11,3.33 -0.06,1.6 -0.13,2.76 -0.06,1.29 -0.12,2.09 -0.06,0.95 -0.12,1.32 -0.18,1.02 -0.22,0.46 -1,0.88 -1.78,0.9 -0.16,0.04 -0.53,0.08 -0.3,0.03 -0.78,0.07 -0.85,0.06 -2.29,0.09 -1.21,0.04 -2.82,0.04 -1.45,0.02 h -3.05 l -1.52,-0.01 -2.98,-0.04 -1.45,-0.02 -2.6,-0.09 -1.23,-0.04 -1.94,-0.13 -0.43,-0.03 -0.68,-0.08 -0.31,-0.04 m 269.58,-4.85 -0.12,-0.11 -0.22,-0.49 -0.12,-0.29 -0.21,-0.8 -0.11,-0.44 -0.2,-1.09 -0.1,-0.57 -0.2,-1.34 -0.18,-1.39 -0.33,-3.4 -0.15,-1.78 -0.25,-3.97 -0.23,-4.06 -0.16,-8.74 -0.01,-2.15 0.07,-4.12 0.25,-5.67 0.07,-1 0.14,-1.73 0.07,-0.82 0.15,-1.4 0.14,-1.32 0.37,-1.87 0.2,-0.83 0.53,-1.13 1.07,-1.27 0.28,-0.23 0.76,-0.41 0.42,-0.19 0.97,-0.31 1.02,-0.28 2.35,-0.28 1.18,-0.08 2.23,0.17 0.52,0.07 0.92,0.23 1.12,0.49 0.42,0.27 1.31,0.1 2.27,-0.47 0.57,-0.22 1.34,-0.34 0.69,-0.15 1.54,-0.19 1.56,-0.17 3.42,0.08 1.7,0.1 3.25,0.58 0.77,0.17 1.42,0.43 1.86,0.78 4.03,2.1 4.22,-2.17 1.25,-0.65 2.62,-0.89 1.32,-0.38 2.7,-0.37 1.35,-0.12 2.69,0.13 1.34,0.12 2.61,0.61 1.28,0.36 2.46,1.06 1.2,0.58 2.21,1.49 1.08,0.8 1.9,1.91 2.42,3.3 0.68,1.15 0.91,1.87 0.19,0.48 0.31,1.07 0.15,0.56 0.21,1.34 0.1,0.72 0.15,1.78 0.07,0.96 0.1,2.39 0.05,1.28 0.08,3.15 0.11,5.77 0.03,1.37 0.04,2.5 0.02,1.22 0.02,2.19 v 1.06 1.91 l -0.01,0.92 -0.04,1.64 -0.06,1.58 -0.24,2.44 -0.15,1.12 -0.48,1.63 -0.28,0.74 -0.79,0.99 -0.43,0.43 -1.15,0.5 -0.62,0.2 -1.57,0.18 -2.89,0.06 h -1.58 l -2.82,-0.23 -0.62,-0.07 -0.98,-0.17 -0.92,-0.3 -0.3,-0.19 -0.55,-0.57 -0.25,-0.32 -0.45,-0.84 -0.22,-0.46 -0.36,-1.15 -0.17,-0.61 -0.28,-1.5 -0.13,-0.79 -0.2,-1.87 -0.09,-0.98 -0.14,-2.29 -0.06,-1.2 -0.07,-2.73 -0.04,-4.65 v -1.86 l -0.03,-3.12 -0.03,-1.46 -0.1,-2.4 -0.06,-1.12 -0.2,-1.77 -0.11,-0.81 -0.32,-1.22 -0.18,-0.55 -0.47,-0.76 -0.26,-0.33 -0.65,-0.37 -0.35,-0.15 -0.86,-0.08 -1.55,0.11 -0.49,0.07 -0.84,0.3 -0.4,0.18 -0.67,0.58 -0.31,0.33 -0.53,0.91 -0.24,0.51 -0.39,1.32 -0.17,0.72 -0.27,1.8 -0.13,0.97 -0.17,2.34 -0.07,1.25 -0.08,2.95 -0.06,5.2 v 2.09 l -0.03,3.47 -0.03,1.62 -0.14,2.61 -0.08,1.21 -0.3,1.87 -0.18,0.86 -0.53,1.26 -0.3,0.56 -0.83,0.77 -0.45,0.33 -1.19,0.39 -0.64,0.16 -1.61,0.14 -2.96,0.06 h -1.06 l -1.76,-0.05 -0.83,-0.05 -1.31,-0.24 -0.61,-0.15 -0.94,-0.56 -0.43,-0.33 -0.63,-1.01 -0.28,-0.57 -0.37,-1.58 -0.17,-0.88 -0.18,-2.29 -0.08,-1.24 -0.06,-3.13 -0.03,-5.77 v -2 l -0.05,-3.42 -0.03,-1.62 -0.13,-2.71 -0.08,-1.27 -0.23,-2.08 -0.13,-0.96 -0.36,-1.52 -0.2,-0.7 -0.51,-1.03 -0.27,-0.47 -0.68,-0.63 -0.36,-0.27 -0.87,-0.3 -1.53,-0.17 h -0.56 l -0.94,0.13 -0.44,0.09 -0.73,0.37 -0.34,0.23 -0.55,0.72 -0.25,0.4 -0.4,1.15 -0.18,0.64 -0.26,1.66 -0.12,0.91 -0.16,2.27 -0.07,1.23 -0.08,2.97 -0.05,5.35 -0.01,2.25 -0.05,3.74 -0.04,1.75 -0.16,2.82 -0.09,1.31 -0.32,2.03 -0.19,0.93 -0.55,1.38 -0.31,0.61 -0.85,0.84 -0.46,0.37 -1.21,0.44 -0.66,0.18 -1.63,0.16 -2.99,0.07 h -0.94 l -1.64,-0.1 -0.78,-0.06 -1.31,-0.22 -0.61,-0.12 -0.96,-0.34 -0.43,-0.18 M 666,174 l -0.54,-0.54 -0.75,-1.43 -0.32,-0.76 -0.3,-1.77 -0.09,-0.91 0.18,-1.98 0.8,-3.04 0.22,-0.59 0.46,-0.81 0.27,-0.35 0.78,-0.42 0.46,-0.17 1.42,-0.16 0.41,-0.03 0.99,-0.03 1.79,-0.01 h 1.6 l 2.86,0.35 0.64,0.11 0.99,0.27 0.93,0.47 0.24,0.24 0.38,0.76 0.16,0.41 0.24,1.03 0.2,1.08 -0.01,2.55 -0.07,1.28 -0.5,2.35 -0.15,0.54 -0.4,0.91 -0.72,1 -0.33,0.29 -0.84,0.48 -0.45,0.21 -1.03,0.32 -1.07,0.28 -2.4,0.08 -1.2,-0.03 -2.25,-0.53 -0.53,-0.16 -0.93,-0.45 -0.44,-0.24 z"
         id="path2" />
    </g>
  </g>
</svg>
