<?xml version="1.0" encoding="UTF-8" standalone="no"?>
<!-- Created with Inkscape (http://www.inkscape.org/) -->

<svg
   width="400"
   height="180"
   viewBox="0 0 105.83333 47.625"
   version="1.1"
   id="svg1"
   sodipodi:docname="lelong_logo_hover.svg"
   inkscape:version="1.3.2 (1:1.3.2+202404261509+091e20ef0f)"
   xmlns:inkscape="http://www.inkscape.org/namespaces/inkscape"
   xmlns:sodipodi="http://sodipodi.sourceforge.net/DTD/sodipodi-0.dtd"
   xmlns="http://www.w3.org/2000/svg"
   xmlns:svg="http://www.w3.org/2000/svg">
  <sodipodi:namedview
     id="namedview1"
     pagecolor="#505050"
     bordercolor="#eeeeee"
     borderopacity="1"
     inkscape:showpageshadow="0"
     inkscape:pageopacity="0"
     inkscape:pagecheckerboard="0"
     inkscape:deskcolor="#505050"
     inkscape:zoom="2.1884955"
     inkscape:cx="258.62516"
     inkscape:cy="90.016178"
     inkscape:window-width="1920"
     inkscape:window-height="1011"
     inkscape:window-x="0"
     inkscape:window-y="0"
     inkscape:window-maximized="1"
     inkscape:current-layer="g2" />
  <defs
     id="defs1" />
  <g
     id="layer1"
     transform="translate(-7.4083337)">
    <g
       id="g2"
       transform="matrix(0.11196231,0,0,0.11196231,6.1040247,9.8142929)">
      <path
         d="m 172.78,62.7 2.96,0.28 5.8,1.25 2.88,0.73 5.55,2.11 2.73,1.16 5.16,2.92 2.52,1.55 4.65,3.68 2.25,1.93 4,4.37 5.14,7.29 0.63,1.07 1.03,1.91 0.49,0.92 0.77,1.65 0.35,0.79 0.51,1.42 0.22,0.68 0.26,1.22 0.09,0.59 v 1.06 l -0.03,0.51 -0.24,0.94 -1.63,2.49 -0.27,0.27 -0.98,0.77 -0.57,0.43 -1.67,1.13 -0.94,0.63 -2.51,1.6 -0.69,0.43 -1.56,0.96 -0.81,0.5 -1.81,1.11 -0.94,0.57 -2.09,1.27 -1.09,0.65 -2.38,1.43 -1.23,0.73 -2.69,1.6 -1.39,0.83 -3.02,1.79 -1.55,0.91 -3.36,1.99 -1.73,1.02 -3.72,2.19 -1.91,1.12 -4.11,2.41 -6.6,3.87 -1.82,1.07 -3.37,2.01 -1.61,0.97 -2.71,1.68 -0.62,0.39 -1.08,0.68 -0.5,0.32 -0.81,0.54 -0.37,0.24 -0.5,0.37 -0.37,0.32 -0.13,0.2 0.15,0.57 0.13,0.31 0.59,0.71 0.34,0.38 0.95,0.81 0.51,0.41 1.21,0.84 1.26,0.84 2.92,1.51 4.27,1.53 1.66,0.37 3.36,0.2 1.68,0.01 3.37,-0.49 1.67,-0.33 3.3,-1.14 1.63,-0.65 3.17,-1.75 1.56,-0.94 2.96,-2.32 1.46,-1.22 2.7,-2.84 1.31,-1.49 2.37,-3.33 3.11,-5.49 0.39,-0.82 0.74,-1.34 0.37,-0.63 0.77,-0.98 0.4,-0.44 0.87,-0.63 0.46,-0.28 1.08,-0.3 0.56,-0.11 1.35,0.02 0.71,0.04 1.71,0.32 0.91,0.19 2.15,0.6 3.82,1.2 1.33,0.44 2.19,0.75 1.03,0.35 1.65,0.63 0.76,0.3 1.17,0.58 0.54,0.28 0.76,0.59 0.34,0.29 0.43,0.66 0.18,0.35 0.17,0.79 0.06,0.42 -0.02,1 -0.16,1.8 -0.11,0.98 -0.47,2.1 -0.27,1.07 -0.78,2.24 -0.43,1.13 -1.06,2.35 -0.56,1.17 -1.31,2.39 -1.38,2.4 -3.4,4.75 -5.86,6.68 -1.18,1.18 -2.36,2.14 -1.18,1.04 -2.38,1.86 -2.38,1.81 -4.97,2.87 -2.53,1.32 -5.46,2 -1.41,0.46 -2.95,0.76 -4.67,0.97 -1.22,0.21 -2.08,0.34 -0.99,0.16 -1.71,0.25 -1.65,0.22 -2.75,0.15 -1.37,0.02 -2.94,-0.23 -0.8,-0.08 -1.81,-0.22 -0.94,-0.12 -2.21,-0.32 -2.84,-0.4 -5.53,-1.51 -2.73,-0.86 -5.24,-2.36 -2.57,-1.27 -4.87,-3.14 -2.37,-1.65 -4.41,-3.83 -2.14,-1.99 -3.87,-4.44 -1.86,-2.3 -3.25,-4.98 -1.53,-2.55 -2.54,-5.45 -2.93,-8.61 -0.23,-0.89 -0.39,-2.12 -0.18,-1.11 -0.28,-2.46 -0.25,-2.52 -0.19,-5.52 -0.04,-2.75 0.26,-5.25 0.09,-1.24 0.27,-2.27 0.53,-2.94 0.61,-2.54 1.77,-4.91 0.98,-2.43 2.45,-4.64 1.3,-2.28 3.06,-4.3 1.59,-2.09 3.58,-3.87 1.85,-1.87 4.03,-3.37 2.06,-1.61 4.41,-2.79 2.24,-1.31 4.7,-2.13 7.31,-2.37 2.93,-0.7 5.94,-0.65 2.97,-0.2 M 53.16,45.46 l 1.27,1.11 0.17,0.17 0.29,0.62 0.14,0.37 0.23,1.2 0.1,0.7 0.17,2.03 0.04,0.57 0.07,1.34 0.04,0.71 0.05,1.63 0.03,0.86 0.05,1.95 0.02,1.03 0.04,2.3 0.02,1.21 0.02,2.69 0.02,1.4 0.02,3.11 0.01,1.61 0.01,3.55 0.01,1.84 0.01,4.03 v 2.08 L 56,88.1 v 7.42 47.37 l 4.82,5.61 22.84,0.26 3.14,0.04 5.83,0.1 1.39,0.03 2.6,0.05 1.26,0.04 2.28,0.06 1.09,0.03 1.89,0.07 0.89,0.03 1.43,0.07 0.66,0.04 0.91,0.06 0.72,0.1 0.11,0.04 0.2,0.39 0.09,0.24 0.17,0.74 0.08,0.42 0.15,1.06 0.06,0.56 0.12,1.31 0.11,1.37 0.14,3.29 0.06,1.7 0.03,3.63 0.01,1.82 -0.08,3.56 -0.05,1.74 -0.18,3.07 -0.06,0.72 -0.12,1.27 -0.07,0.61 -0.15,1.01 -0.09,0.46 -0.18,0.69 -0.3,0.62 -0.05,0.05 -0.3,0.08 -0.19,0.04 -0.58,0.09 -0.65,0.08 -2.04,0.14 -1.13,0.07 -2.9,0.13 -1.55,0.06 -3.61,0.1 -1.88,0.05 -4.17,0.08 -2.15,0.04 -4.6,0.06 -4.67,0.06 -9.98,0.04 -5,0.02 -9.76,-0.05 -2.37,-0.02 -4.49,-0.05 -2.2,-0.03 -4.03,-0.07 -1.95,-0.04 -3.43,-0.1 -1.62,-0.05 -2.68,-0.13 -1.23,-0.06 -1.78,-0.15 -0.38,-0.04 -0.57,-0.08 -0.25,-0.04 -0.29,-0.09 -0.61,-0.24 -1.25,-0.96 -1.39,-1.67 -0.06,-0.09 -0.09,-0.54 -0.05,-0.32 -0.09,-0.96 -0.05,-0.52 -0.08,-1.36 -0.04,-0.72 -0.08,-1.73 -0.04,-0.9 -0.07,-2.06 -0.03,-1.07 -0.06,-2.38 -0.03,-1.22 -0.06,-2.65 -0.03,-1.36 -0.05,-2.9 -0.04,-2.96 -0.08,-6.55 -0.03,-3.36 -0.05,-7.18 -0.02,-3.65 -0.02,-7.57 -0.01,-3.81 0.01,-7.74 v -3.86 l 0.03,-7.66 0.02,-3.8 0.06,-7.36 0.03,-3.62 0.08,-6.82 0.04,-3.32 0.11,-6.05 0.03,-1.45 0.06,-2.72 0.03,-1.33 0.07,-2.45 0.03,-1.19 0.07,-2.15 0.04,-1.03 0.08,-1.82 0.04,-0.86 0.08,-1.46 0.05,-0.68 0.09,-1.07 0.04,-0.48 0.1,-0.65 0.15,-0.47 0.06,-0.05 0.4,-0.15 0.25,-0.08 0.74,-0.21 0.41,-0.12 1.03,-0.26 0.54,-0.13 1.27,-0.3 1.32,-0.31 3.17,-0.7 1.63,-0.36 3.51,-0.73 1.76,-0.37 3.47,-0.69 1.7,-0.33 3.05,-0.57 1.44,-0.26 2.25,-0.36 0.5,-0.08 0.77,-0.1 0.8,-0.06 h 0.15 m 108.64,49.22 -1,0.13 -1.93,0.47 -0.94,0.27 -1.8,0.73 -0.87,0.39 -1.64,0.97 -0.8,0.52 -1.47,1.2 -0.71,0.64 -1.27,1.42 -0.62,0.74 -1.07,1.64 -1.35,2.67 -0.5,1.22 -0.83,2.87 -0.37,1.45 -0.47,2.79 -0.09,0.65 -0.1,1.19 -0.03,0.56 0.02,0.92 0.02,0.41 0.16,0.57 0.39,0.36 h 0.08 l 0.48,-0.2 0.29,-0.13 0.87,-0.44 0.49,-0.24 1.23,-0.65 0.65,-0.35 1.53,-0.84 0.8,-0.44 1.78,-1 0.92,-0.51 1.99,-1.13 2.03,-1.16 4.48,-2.61 2.27,-1.33 4.15,-2.5 0.99,-0.6 1.82,-1.13 0.88,-0.54 1.57,-1 0.75,-0.48 1.27,-0.83 0.6,-0.4 0.93,-0.64 0.42,-0.3 0.55,-0.43 0.34,-0.37 v -0.22 l -0.38,-0.48 -0.25,-0.25 -0.8,-0.52 -0.44,-0.26 -1.13,-0.53 -0.6,-0.26 -1.36,-0.49 -1.4,-0.48 -3.1,-0.74 -4.33,-0.5 h -1.06 z"
         id="path1"
         style="fill:#0c69b4;fill-opacity:1" />
      <path
         id="path2"
         style="fill:#fcb20f;fill-opacity:1"
         d="m 266.98935,40.548194 -13.23731,2.690848 -3.56318,0.75233 -2.05853,0.447706 -0.89079,0.212314 -1.69851,0.410781 -0.72002,0.198467 -1.37081,0.378473 -0.57233,0.189236 -2.00775,0.733868 -0.66002,0.369242 -1.14003,0.747714 -0.34155,0.429243 -0.54925,0.960029 -0.30001,0.992336 -0.12,0.798485 -0.12,0.872334 -0.0508,0.540016 -0.0877,1.140033 -0.0415,0.696944 -0.0785,1.481582 -0.0323,0.890795 -0.06,1.869286 -0.0277,1.098494 -0.0508,2.303144 -0.009,1.338501 -0.0415,2.801621 -0.009,1.59697 -0.0185,3.350868 v 1.892363 l -0.0138,3.937039 v 2.210834 l 0.0138,4.601674 v 2.547767 l 0.009,5.289386 0.009,2.930856 0.0185,6.050947 0.0231,3.31856 0.0185,6.84943 0.0185,3.75242 0.0508,10.92955 0.0323,6.61866 0.009,2.99085 0.0277,5.78787 0.0231,2.60315 0.0277,4.99861 0.0185,2.2293 0.0415,4.29243 0.0185,1.88775 0.0415,3.63241 0.0323,1.57851 0.0462,3.01855 0.0323,1.31081 0.06,2.4693 0.0415,1.06157 0.0692,1.98006 0.0369,0.83079 0.0923,1.56005 0.0508,0.63694 0.11077,1.18157 0.06,0.47079 0.12,0.88156 0.0692,0.3277 0.29077,1.11234 0.18924,0.30924 0.3877,0.48925 0.23078,0.17077 0.87233,0.48002 0.69695,0.18923 1.62004,0.31847 1.14927,0.11078 1.21388,0.11077 0.70618,0.0369 1.48158,0.0738 0.84925,0.0277 1.78159,0.0415 1.0108,0.009 2.09083,0.0185 h 1.16773 l 3.72934,-0.009 2.10006,-0.0277 0.88157,-0.0323 1.66158,-0.0508 0.68772,-0.0508 1.30157,-0.0969 0.52617,-0.06 1.85083,-0.33231 0.65078,-0.24924 1.1585,-0.59079 0.51232,-0.40616 2.35853,-1.91083 V 111.1195 45.062173 l -2.24775,-2.261605 z m 80.28236,21.503709 -3.3601,0.0092 -3.35087,0.03692 -1.62927,0.06 -3.20318,0.161543 -1.48619,0.129235 -2.89393,0.281547 -1.26927,0.189236 -2.40007,0.40155 -0.96003,0.249238 -6.8402,2.247759 -4.3709,1.901594 -2.07698,1.149265 -4.08936,2.432379 -1.92005,1.389271 -3.75242,2.889316 -1.74005,1.620048 -3.37856,3.32779 -1.54159,1.813899 -2.95854,3.729341 -1.31081,1.99852 -2.51084,4.089351 -1.07081,2.160064 -1.99852,4.403206 -0.79848,2.307758 -1.35235,4.3109 -0.60925,2.63084 -0.18923,1.4262 -0.31847,2.99086 -0.0831,1.86928 -0.0692,1.95237 -0.0277,1.12157 -0.0323,2.32622 -0.009,1.34312 0.0185,4.8786 0.0831,2.94932 0.0877,1.35235 0.18923,2.62623 0.14308,1.22311 0.30924,2.377 0.2077,1.12157 0.96003,4.35243 0.72002,2.1093 1.61082,4.22781 1.08003,2.28007 3.70165,6.60019 2.87085,4.08935 1.62928,1.88314 3.36933,3.63703 1.86005,1.64312 3.83089,3.15702 2.06775,1.38927 4.23243,2.64008 2.24776,1.12157 4.59244,2.10929 2.41854,0.84003 4.90168,1.5185 2.54777,0.54002 5.16938,0.9231 2.67238,0.23078 3.4478,0.24924 1.65235,0.0508 3.2401,0.0785 1.56005,-0.0415 6.07864,-0.30001 2.86162,-0.43847 5.64016,-1.08003 2.74624,-0.84003 5.46939,-1.86929 2.76008,-1.26003 5.45093,-2.86162 3.41087,-2.18776 1.60159,-1.22311 3.11086,-2.52008 1.42619,-1.38004 2.80162,-2.83854 1.2785,-1.51851 2.48315,-3.11086 1.10773,-1.65236 2.15083,-3.3601 0.94157,-1.76774 1.80928,-3.58164 0.77079,-1.86006 1.44927,-3.75703 0.60002,-1.94314 1.08927,-3.91857 0.41078,-2.00775 0.72925,-4.0432 0.22154,-2.05852 0.34617,-4.14012 0.0323,-2.09083 -0.0323,-4.20013 -0.16616,-2.10929 -0.44309,-4.24166 -0.36924,-2.1093 -0.84003,-4.23704 -0.56771,-2.10007 -1.26003,-4.20935 -0.79387,-2.0816 -1.68005,-4.140122 -0.99695,-2.04006 -2.82932,-4.860143 -2.25237,-3.138553 -1.29696,-1.513891 -2.68162,-2.958549 -1.48158,-1.389271 -3.05086,-2.727773 -1.63851,-1.260037 -3.35087,-2.44161 -1.76774,-1.098494 -3.58165,-2.100062 -1.85082,-0.923104 -3.7478,-1.716973 -1.92006,-0.701559 -3.84011,-1.292346 -1.93852,-0.456936 -3.53087,-0.641558 -2.76009,-0.327702 -1.52312,-0.120003 z m 249.2381,0.01846 -5.88941,0.01846 -2.94931,0.39232 -5.87095,1.029261 -2.88931,0.890795 -5.74171,2.030829 -2.76008,1.389272 -5.46016,3.01855 -2.58008,1.869286 -2.54776,1.929287 -1.23235,1.052339 -2.42776,2.169294 -1.16311,1.167727 -4.00627,4.44013 -2.40007,3.092399 -1.06157,1.601585 -2.04006,3.249327 -0.88157,1.68928 -1.68005,3.429332 -0.70617,1.781591 -1.32004,3.600109 -0.53079,1.86928 -0.96926,3.78011 -0.35078,1.97083 -0.60924,3.96935 -0.18001,2.05852 -0.26308,4.15858 v 2.15084 l 0.28154,6.06941 0.47079,3.94165 0.36001,1.92006 0.81694,3.79857 0.54002,1.83236 1.15388,3.6278 0.69694,1.74928 1.47235,3.44318 0.84926,1.64774 1.78159,3.24933 0.99695,1.54158 2.06314,3.01855 1.12619,1.43081 2.34007,2.79239 1.26003,1.29696 2.58931,2.54316 1.38004,1.16772 2.82008,2.27084 1.50005,1.02926 3.04163,1.98929 1.60158,0.88156 3.24933,1.68005 1.68928,0.72002 3.43856,1.36158 1.78159,0.54925 3.60011,1.02926 1.86928,0.36924 3.75242,0.66925 1.93852,0.20308 3.89088,0.30001 h 1.99852 l 6.6602,-0.36001 4.09858,-0.63232 1.95237,-0.52156 3.83088,-1.20003 1.88775,-0.82618 3.77088,-1.82313 1.92928,-1.1585 2.19238,-1.3108 1.16772,-0.70156 0.46155,-0.25847 0.84003,-0.48002 0.31847,-0.14769 0.57232,-0.27232 0.19847,-0.06 0.59079,-0.0415 0.0877,0.22154 0.0923,0.60925 v 0.51233 l -0.18923,1.3385 -0.30001,1.0108 -0.23078,0.54924 -1.11234,2.2893 -0.78925,1.18157 -1.68005,2.36777 -0.96926,1.06157 -1.98929,2.02159 -1.02003,0.73849 -2.68162,1.87851 -1.61081,1.04311 -0.75695,0.42924 -2.94009,1.45851 -1.58312,0.43847 -1.61082,0.39232 -0.90002,0.13847 -1.84621,0.24924 -1.06157,0.0738 -2.21083,0.12001 -1.26927,0.0277 -2.69085,0.0415 h -1.56005 l -3.49856,-0.0231 -1.98929,-0.0277 -0.84926,-0.0415 -1.61081,-0.0692 -0.70156,-0.06 -1.3385,-0.12924 -0.60002,-0.10154 -2.2293,-0.43847 -1.06157,-0.36925 -2.16929,-0.84002 -1.32004,-0.60002 -4.77245,-1.90159 -1.38004,-0.43848 -0.54924,-0.14308 -0.98773,-0.2077 h -0.29077 l -1.31081,0.46155 -1.20927,0.72926 -0.73848,0.54924 -1.56005,1.20927 -0.8631,0.76156 -1.76774,1.59697 -0.92311,0.91387 -2.5293,2.64008 -1.35697,1.57851 -0.52155,0.72002 -0.9508,1.3985 -0.31847,0.65079 -0.54001,1.25081 -0.12001,0.58155 -0.14308,1.14004 0.0831,0.54001 0.24924,1.06619 0.2677,0.53078 0.63233,1.04311 0.46155,0.51694 1.02003,1.05234 0.63694,0.54001 4.97092,3.49857 3.90934,2.10929 2.30315,0.96926 2.36776,0.96003 1.2785,0.46155 2.63084,0.91849 1.42158,0.44309 2.91701,0.87695 1.58313,0.42924 3.23086,0.8631 1.74005,0.42002 1.34773,0.23077 0.97849,0.06 2.1416,0.0877 1.2785,-0.009 2.69085,-0.0508 1.48158,-0.06 3.01855,-0.16154 1.55082,-0.12 3.12932,-0.24924 1.51851,-0.15693 3.00009,-0.34155 1.38004,-0.18923 2.65392,-0.39232 1.11696,-0.21693 2.07237,-0.44309 0.74771,-0.23078 6.96944,-2.64008 4.36166,-2.10929 2.03083,-1.22773 3.95089,-2.58007 1.81851,-1.44928 3.52164,-3.00931 1.58774,-1.66159 3.06932,-3.42933 1.35235,-1.86006 2.59854,-3.82165 1.12157,-2.04006 2.10006,-4.19089 0.85849,-2.2293 1.59235,-4.53705 0.58617,-2.39084 0.37386,-2.03083 0.2077,-1.8416 0.0923,-1.20003 0.15693,-2.60777 0.0692,-1.65236 0.0738,-1.71697 0.0277,-0.9508 0.06,-1.97082 0.0323,-1.08927 0.0462,-2.25237 0.0231,-1.22773 0.0369,-2.54315 0.0231,-1.38927 0.0277,-2.85701 0.0231,-1.55081 0.0277,-3.19856 0.009,-1.72159 0.0231,-3.54933 0.009,-1.91083 0.009,-3.91858 0.009,-2.1139 v -4.29705 l 0.009,-2.31238 v -4.71706 -2.52008 l 0.009,-10.68031 v -6.39249 l 0.0139,-2.857012 -0.0139,-5.492469 -0.009,-2.418533 -0.0185,-4.652444 -0.0323,-2.04006 -0.06,-3.877037 -0.0462,-1.670818 -0.11078,-3.180094 -0.0831,-1.347732 -0.18,-2.543151 -0.10616,-1.056955 -0.26308,-1.970827 -0.15693,-0.8031 -0.34155,-1.467736 -0.22154,-0.581555 -0.44771,-1.038492 -0.26308,-0.378473 -0.56771,-0.683097 -0.34155,-0.21693 -0.69694,-0.383088 -0.40156,-0.09693 -1.77235,-0.193852 -1.12619,0.09231 -2.44161,0.258469 -1.50928,0.110773 -3.4801,0.341548 -2.0216,0.300009 -0.88156,0.189236 -1.6662,0.420013 -0.73387,0.258469 -1.3662,0.563093 -0.58155,0.336933 -1.12157,0.729252 -0.48002,0.44309 -0.90002,0.92772 -0.38771,0.549247 -0.73848,1.15388 -0.33232,0.66925 -0.61848,1.407734 -0.28154,0.812332 -0.59079,0.01846 -0.81695,-0.300009 -0.56309,-0.281547 -1.23696,-0.660019 -0.72002,-0.438475 -1.52312,-0.941566 -0.81695,-0.558478 -3.85396,-2.358531 -2.64931,-1.370809 -1.34773,-0.581556 -2.74162,-1.107725 -1.3985,-0.452321 -2.82009,-0.840024 -1.42158,-0.318471 -5.77863,-1.02003 z m -113.27872,1.080032 -2.18314,0.02769 -4.35705,0.193852 -2.16006,0.30924 -4.29244,0.770792 -2.07698,0.586171 -4.11243,1.310808 -1.93852,0.863102 -3.78934,1.846208 -1.74928,1.11234 -3.37395,2.367762 -1.4862,1.37081 -1.68005,1.532353 -0.93233,0.816947 -0.3877,0.309239 -0.71079,0.572325 -0.29078,0.198467 -0.53079,0.332318 -0.19846,0.06923 -0.64156,0.0877 -0.1477,-0.276932 -0.18923,-0.761561 v -0.66925 l -0.43386,-2.469303 -0.64618,-1.980059 -0.44309,-0.992336 -0.92772,-1.956981 -0.50309,-0.812332 -0.99695,-1.458504 -0.46155,-0.369242 -1.76775,-0.660019 -1.77236,-0.129235 -1.1308,0.07846 -2.41853,0.249238 -1.42158,0.272316 -2.94932,0.627711 -1.62928,0.461552 -2.91239,0.770792 -2.02621,0.498476 -0.7431,0.161543 -1.99852,0.447706 -1.06157,0.40155 -0.40617,0.420012 -0.40155,0.470783 -0.17077,0.318471 -0.32771,0.687713 -0.14308,0.461552 -0.2677,0.97849 -0.11077,0.632326 -0.21231,1.338501 -0.0877,0.821563 -0.16154,1.749282 -0.0692,1.047723 -0.12001,2.233912 -0.0415,1.306192 -0.0785,2.760081 -0.0277,1.610817 -0.06,3.350868 -0.0231,1.929287 -0.0277,4.010887 v 2.280067 l -0.0231,4.730907 v 2.65854 5.51093 3.06932 6.35096 3.52164 l 0.0231,10.7957 0.0277,6.80328 0.0231,3.15702 0.0462,6.17095 0.0323,2.80162 0.0692,5.41862 0.0508,2.39084 0.0785,4.56013 0.0508,1.92006 0.06,1.86005 0.0185,0.8308 0.06,1.59697 0.0323,0.70156 0.0508,1.32003 0.0277,0.55848 0.06,1.04311 0.0415,0.39694 0.06,0.74309 0.0277,0.25847 0.0738,0.42002 0.0277,0.0923 1.20004,1.88774 1.06157,0.93234 0.48924,0.12923 0.41078,0.0785 0.30924,0.0415 0.67848,0.0785 0.42925,0.0277 1.94313,0.13385 1.22773,0.0369 2.59854,0.0923 1.45389,0.0185 2.97701,0.0415 1.52312,0.009 h 3.04624 l 1.45389,-0.0185 2.82008,-0.0415 1.20927,-0.0415 2.2893,-0.0877 0.84925,-0.06 0.78003,-0.0692 0.30001,-0.0323 0.53078,-0.0785 0.15693,-0.0415 1.78159,-0.90003 1.00157,-0.87695 0.21693,-0.46155 0.18,-1.02003 0.12001,-1.32004 0.06,-0.9508 0.12,-2.09083 0.06,-1.28773 0.13385,-2.76008 0.06,-1.60158 0.10615,-3.32779 0.06,-1.8416 0.11078,-3.81242 0.0508,-2.04929 0.10154,-4.17704 0.0369,-2.21084 0.0923,-4.47244 0.0277,-2.30776 0.50309,-33.56867 2.49699,-3.72011 1.32004,-1.67082 1.12157,-1.20927 0.61848,-0.61386 2.65393,-2.367765 1.20926,-0.807716 2.89855,-1.592355 2.01237,-0.76156 1.02926,-0.240007 2.07698,-0.378473 1.04311,-0.05077 h 2.10006 l 1.0385,0.143081 2.08159,0.378473 1.02003,0.318471 2.02622,0.75233 0.9831,0.507707 1.92929,1.11234 0.90926,0.687713 1.80005,1.463122 0.8308,0.86772 2.04006,2.22929 1.09849,1.42158 0.44309,0.78003 0.80772,1.62927 0.30924,1.0108 0.56309,2.1693 0.19847,1.3985 0.18923,1.46312 0.0785,0.81695 0.14308,1.72159 0.06,0.97849 0.11077,2.02159 0.0369,1.14004 0.0692,2.36776 0.0323,1.32004 0.0508,2.76008 0.0185,1.53235 0.0185,3.1801 0.0138,1.75851 0.009,3.64164 0.009,1.99852 v 4.14936 2.27083 5.58017 3.37856 l 0.009,1.54158 v 2.95855 l 0.009,1.32927 0.009,2.57085 0.0138,1.14926 0.0185,2.21083 0.0185,0.98311 0.0231,1.86929 0.0185,0.83079 0.0415,1.56928 0.0277,0.67848 0.0508,1.29234 0.0277,0.55848 0.14308,1.97083 0.0969,0.68771 0.21231,1.20004 0.12924,0.38308 0.29077,0.64618 0.18001,0.19385 0.37847,0.3277 0.23078,0.12 0.66002,0.21232 0.67848,0.12923 0.44309,0.0692 2.04929,0.23077 1.35696,0.0969 2.89393,0.17077 1.64774,0.0508 3.42011,0.0785 h 1.78159 l 4.65706,-0.0277 2.58007,-0.06 1.06157,-0.0692 1.98006,-0.14308 0.78925,-0.12001 1.46312,-0.25846 0.56771,-0.18001 1.05234,-0.41078 0.38771,-0.2677 0.72002,-0.58156 0.27231,-0.36001 0.4754,-0.78925 0.19385,-0.48002 0.34617,-1.02003 0.15231,-0.60924 0.10154,-1.16312 0.06,-1.44004 0.0277,-1.02003 0.0415,-2.23853 0.0185,-1.3708 0.0323,-2.93086 0.009,-1.68005 0.009,-3.50779 V 158.33166 154.33 l -0.009,-2.1416 -0.0231,-4.38013 -0.0185,-2.29853 -0.0277,-4.67091 -0.0323,-2.40007 -0.0785,-6.69712 -0.0508,-4.08935 -0.0323,-1.8739 -0.0692,-3.6278 -0.0277,-1.66158 -0.0831,-3.20779 -0.0462,-1.47235 -0.10154,-2.82932 -0.06,-1.28773 -0.12001,-2.50161 -0.0785,-1.1308 -0.32309,-4.25089 -0.21693,-1.77698 -0.47078,-3.341637 -0.30924,-1.430811 -0.66925,-2.75085 -0.42001,-1.269268 -0.90003,-2.478535 -0.55386,-1.250806 -1.16773,-2.529305 -0.70156,-1.398502 -1.53696,-2.663156 -1.23235,-1.800053 -0.71079,-0.900026 -3.02778,-3.567797 -1.74928,-1.670819 -3.63242,-3.240095 -1.90159,-1.361578 -3.84011,-2.520074 -1.86929,-0.867718 -5.9171,-2.192372 -4.14935,-0.987722 -2.15083,-0.272315 z m 114.0172,30.070115 2.58008,0.180005 1.2508,0.221545 2.46007,0.526169 1.18158,0.39232 2.30776,0.867717 1.10311,0.540016 2.14621,1.172342 1.00157,0.678482 1.9616,1.440042 0.90926,0.81233 1.75851,1.67082 0.8031,0.91849 1.52774,1.89698 0.67848,1.0108 1.29234,2.07237 0.54925,1.09849 1.02926,2.2293 0.40155,1.16311 0.74772,2.3493 0.26308,1.20926 0.43848,2.45084 0.10154,1.25081 0.12,2.50623 -0.0692,1.27388 -0.22155,2.54777 -0.24,1.2785 -0.59079,2.55238 -0.42924,1.26927 -0.96926,2.53853 -0.63233,1.24158 -2.71854,4.30166 -2.27084,2.74624 -1.26927,1.24157 -2.62161,2.35853 -1.37081,0.9508 -2.72777,1.74005 -1.32927,0.5631 -1.18158,0.42001 -0.77079,0.18 -1.62928,0.33694 -0.91849,0.12923 -3.89088,0.42001 -1.87852,-0.009 -5.19246,-0.42001 -3.12009,-0.68771 -1.43081,-0.57233 -2.77854,-1.28773 -1.32004,-0.89079 -2.58931,-1.93852 -1.26927,-1.23234 -3.60933,-4.40783 -1.89237,-3.32317 -0.69694,-1.80005 -1.22311,-3.66934 -0.35078,-1.91083 -0.54925,-3.8678 -0.009,-1.9616 0.12923,-3.90935 0.32309,-1.92005 0.81695,-3.79858 0.66002,-1.80928 1.50004,-3.5401 1.00157,-1.61082 2.18776,-3.12009 1.34311,-1.3385 3.54934,-3.170865 2.25699,-1.601586 1.17234,-0.581555 2.39084,-1.029261 1.34773,-0.35078 2.81085,-0.609249 1.66159,-0.198467 z m -254.93826,2.700079 h 2.17852 l 4.3709,0.161543 1.9616,0.336933 1.92005,0.369242 0.84003,0.263085 1.62004,0.540015 0.66002,0.336933 3.55857,2.210838 2.10006,1.72159 0.91849,0.96002 1.76313,1.99852 0.73848,1.08004 1.41235,2.22006 0.56771,1.18157 1.06157,2.40008 0.39693,1.2508 0.72926,2.52931 0.23077,1.28773 0.38309,2.61238 0.0692,1.32004 0.0508,2.64008 -0.10154,1.3108 -0.28154,2.617 -0.25847,1.29235 -0.60925,2.54777 -0.42001,1.23234 -0.93234,2.437 -0.57694,1.14926 -1.2508,2.27084 -0.73849,1.06157 -1.56004,2.04929 -0.90003,0.93233 -1.8739,1.78621 -1.04772,0.77079 -2.17853,1.48158 -1.20004,0.60002 -2.49238,1.10773 -1.34773,0.40155 -3.1524,0.89079 -1.30158,0.24001 -2.44622,0.36001 -1.14003,-0.0185 -2.28007,-0.18001 -1.26004,-0.29078 -2.66315,-0.72002 -1.64774,-0.57232 -4.38013,-2.03083 -2.74162,-1.78621 -1.22773,-1.08003 -2.38161,-2.28007 -1.02003,-1.29234 -1.92006,-2.66777 -0.74771,-1.46312 -0.8908,-2.30776 -0.48001,-1.86929 -0.18,-1.06157 -0.58156,-4.51859 -0.06,-2.4093 0.0415,-4.83245 0.2677,-2.16007 0.30924,-2.09083 0.21231,-0.90926 0.47078,-1.73082 0.30001,-0.67848 2.1693,-3.82165 1.86928,-2.52007 1.0708,-1.16773 2.22007,-2.25237 1.1585,-0.92772 2.33083,-1.730822 1.13081,-0.567709 2.27083,-0.881564 1.77698,-0.470783 0.99233,-0.170775 z m 329.46968,65.078839 -1.79082,0.009 -0.98772,0.0323 -0.41078,0.0277 -1.42158,0.16154 -0.45694,0.17078 -0.78002,0.42001 -0.27232,0.35078 -0.46155,0.80772 -0.21693,0.59078 -0.8031,3.04163 -0.18001,1.98006 0.0923,0.90926 0.3,1.76774 0.31847,0.76156 0.75233,1.43081 0.54002,0.54002 0.69694,0.60002 0.44309,0.24 0.92772,0.44771 0.53079,0.16154 2.25237,0.53079 1.20004,0.0277 2.40007,-0.0785 1.06618,-0.28155 1.03388,-0.31847 0.44771,-0.21232 0.84002,-0.48001 0.33232,-0.28616 0.72002,-1.00157 0.39693,-0.90926 0.15232,-0.54001 0.49847,-2.3493 0.0692,-1.28312 0.009,-2.54777 -0.19847,-1.08003 -0.24001,-1.02926 -0.16154,-0.41078 -0.37847,-0.76156 -0.24001,-0.24001 -0.92772,-0.47078 -0.99234,-0.2677 -0.64156,-0.11077 -2.857,-0.35078 z m 19.36673,14.90351 0.10154,0.0785 0.43386,0.18 0.96002,0.33693 0.60925,0.12001 0.91849,0.15693 c -1.02246,-0.27581 -2.02435,-0.57274 -3.02316,-0.87234 z" />
      <path
         id="use1"
         style="fill:#ff0000;fill-opacity:1"
         d="m 254.92359,62.650278 c -0.1185,1.19763 -0.25201,2.39225 -0.39232,3.58626 1.14597,-1.02078 1.11052,-2.26709 0.39232,-3.58626 z m 387.46831,3.76165 c -0.32095,0.0144 -0.77936,0.44338 -1.17695,0.88618 0.0852,-0.0489 0.18974,-0.0619 0.27231,-0.11539 -0.95902,0.62773 1.30129,-0.78856 0.90464,-0.77079 z m -340.15,54.435442 c -0.11134,0.1469 -0.20464,0.25902 -0.29077,0.3877 0.10248,-0.0622 0.069,-0.0443 0.18,-0.11077 0.26519,-0.33945 0.0261,-0.0621 0.18001,-0.2677 -0.0236,-0.004 -0.0456,-0.005 -0.0692,-0.009 z m 440.16371,0.33693 -1.35234,0.12001 -2.70008,0.36924 -1.32004,0.37847 -2.617,0.8908 -1.25081,0.65078 -4.21858,2.1693 -4.03397,-2.10006 -1.86005,-0.78003 -1.41697,-0.42924 -0.77079,-0.17077 -3.24933,-0.58156 -1.70312,-0.0969 -3.4201,-0.0831 -1.55543,0.17078 -1.54159,0.18923 -0.69233,0.15231 -1.3385,0.34155 -0.56771,0.21693 -2.27083,0.47079 -1.31081,-0.10155 -0.42001,-0.2677 -1.12157,-0.48924 -0.91849,-0.23078 -0.52156,-0.0692 -2.22929,-0.17077 -1.18158,0.0785 -2.3493,0.28154 -1.02003,0.28155 -0.96925,0.30924 -0.42002,0.18924 -0.76156,0.41078 -0.27693,0.23077 -1.0708,1.26927 -0.53078,1.12619 -0.19847,0.83079 -0.36924,1.86929 -0.14308,1.32004 -0.1477,1.40312 -0.0692,0.81694 -0.14309,1.73082 -0.0692,1.00157 -0.24924,5.66786 -0.0692,4.12166 0.009,2.15083 0.16155,8.73718 0.22616,4.06166 0.25385,3.96935 0.1477,1.78159 0.33231,3.40164 0.18001,1.38927 0.19847,1.3385 0.10154,0.57232 0.19847,1.08927 0.11077,0.43847 0.2077,0.79849 0.12,0.29077 0.22154,0.48925 0.12001,0.11077 0.56771,0.45232 0.43386,0.18001 0.96002,0.33693 0.60925,0.12 1.31081,0.22155 0.78002,0.06 1.63851,0.10154 h 0.94157 l 2.98624,-0.0692 1.6339,-0.16154 0.66001,-0.18001 1.20927,-0.43847 0.45694,-0.37386 0.85387,-0.84002 0.30924,-0.60925 0.54925,-1.38004 0.18923,-0.92772 0.31847,-2.03083 0.0923,-1.31081 0.16155,-2.82008 0.0369,-1.74928 0.0508,-3.73858 0.009,-2.25237 0.0508,-5.34939 0.0785,-2.96778 0.0738,-1.23234 0.15692,-2.27084 0.12001,-0.90925 0.26308,-1.66159 0.18001,-0.63694 0.39693,-1.14927 0.24924,-0.40155 0.55386,-0.72002 0.33693,-0.23078 0.72926,-0.36924 0.44309,-0.0923 0.93695,-0.12923 h 0.56309 l 1.52774,0.17077 0.87233,0.30001 0.36001,0.27232 0.67848,0.62771 0.2677,0.47078 0.51233,1.02926 0.19846,0.70156 0.36001,1.51851 0.12924,0.96002 0.23077,2.0816 0.0831,1.26927 0.12924,2.70931 0.0277,1.62005 0.0508,3.4201 v 1.99852 l 0.0323,5.7694 0.06,3.13394 0.0785,1.23696 0.18,2.2893 0.17078,0.88156 0.36924,1.57851 0.28154,0.57232 0.62772,1.0108 0.42924,0.32771 0.94157,0.56309 0.60924,0.1477 1.31081,0.24 0.8308,0.0508 1.75851,0.0508 h 1.06157 l 2.95855,-0.06 1.61081,-0.14308 0.64156,-0.15693 1.18619,-0.39232 0.45232,-0.3277 0.83079,-0.77079 0.30001,-0.55848 0.53079,-1.26003 0.18,-0.86311 0.30001,-1.86928 0.0785,-1.20927 0.13846,-2.61238 0.0323,-1.62005 0.0277,-3.46626 v -2.09083 l 0.06,-5.20169 0.0831,-2.94932 0.0692,-1.2508 0.17077,-2.34007 0.12924,-0.96926 0.2677,-1.80005 0.17077,-0.72002 0.39232,-1.32004 0.24001,-0.50771 0.52617,-0.91387 0.31385,-0.3277 0.66925,-0.58156 0.39694,-0.18001 0.84002,-0.3 0.48925,-0.0692 1.55081,-0.11078 0.8631,0.0831 0.34617,0.1477 0.65079,0.36924 0.26308,0.33232 0.46617,0.75694 0.18,0.55387 0.32309,1.21849 0.11077,0.80772 0.19847,1.77236 0.06,1.12157 0.10154,2.40007 0.0277,1.45851 0.0323,3.12009 v 1.86005 l 0.0369,4.64783 0.0692,2.73239 0.06,1.20004 0.14308,2.28929 0.0877,0.97849 0.20308,1.86929 0.12924,0.79387 0.27693,1.50004 0.17077,0.60925 0.36001,1.14927 0.22155,0.46155 0.4477,0.84002 0.25386,0.31847 0.54924,0.56771 0.30001,0.19385 0.91849,0.30001 0.97849,0.16616 0.6231,0.0739 2.82008,0.22616 h 1.57851 l 2.88931,-0.06 1.56928,-0.18 0.6231,-0.19847 1.14926,-0.49848 0.42924,-0.42924 0.78926,-0.99234 0.28154,-0.73848 0.48002,-1.62928 0.14769,-1.12157 0.24001,-2.44161 0.06,-1.57851 0.0415,-1.63851 0.009,-0.9231 v -1.91083 -1.05695 l -0.0185,-2.19237 -0.0231,-1.2185 -0.0369,-2.50161 -0.0323,-1.37081 -0.10616,-5.7694 -0.0831,-3.14779 -0.0508,-1.2785 -0.0969,-2.39084 -0.0692,-0.96002 -0.15232,-1.78159 -0.10154,-0.72003 -0.2077,-1.3385 -0.15231,-0.56309 -0.30924,-1.06619 -0.18923,-0.48001 -0.90926,-1.8739 -0.67848,-1.14927 -2.42315,-3.30009 -1.89698,-1.91083 -1.08003,-0.79848 -2.21084,-1.49082 -1.20003,-0.57694 -2.46007,-1.06157 -1.28312,-0.36001 -2.60777,-0.60924 -1.3385,-0.12001 z m 35.79798,0.57694 -3.81704,0.40155 -2.13237,0.65079 -0.80771,0.48925 -1.46312,1.08003 -0.43848,0.67848 -0.66925,1.44927 v 0.8308 l 0.15693,0.72925 0.27232,0.8631 0.19846,0.60002 0.45232,1.31081 0.29078,0.80771 0.60925,1.68928 0.36001,0.98311 0.75695,2.02621 0.42001,1.12157 0.88156,2.29853 0.47079,1.23235 1.99852,5.11861 1.10311,2.74162 7.96638,19.93905 -2.96778,7.71253 -1.0708,2.89855 -0.59078,1.74005 -0.23078,0.78002 -0.42001,1.49081 -0.15693,0.66925 -0.26308,1.26927 -0.0692,0.55848 -0.12,2.04006 0.17077,0.76156 0.49848,1.36158 0.48001,0.48001 0.59079,0.38771 0.51232,0.16154 1.14004,0.27693 0.72002,0.10154 3.20778,0.30001 1.76313,-0.0185 3.51703,-0.14308 1.3985,-0.21693 1.32004,-0.24924 0.48002,-0.17077 0.84002,-0.35078 0.17077,-0.22155 0.52156,-0.96003 0.54925,-1.21849 0.37847,-0.87234 0.79387,-1.88774 0.48001,-1.17235 1.00619,-2.46007 0.56309,-1.3985 1.16773,-2.93086 0.63232,-1.58773 1.28773,-3.28164 0.6831,-1.74005 2.77854,-7.1679 1.42158,-3.72011 2.83855,-7.44022 1.32927,-3.54011 1.30157,-3.48933 0.60925,-1.64312 1.19081,-3.20779 0.54001,-1.47235 1.02926,-2.83855 0.43848,-1.24157 0.83079,-2.3493 0.3277,-0.96003 0.59079,-1.75851 0.20308,-0.63233 0.30924,-1.06619 0.0369,-0.24 0.0923,-1.50005 -0.12001,-0.90002 -0.15231,-0.40155 -0.36924,-0.76156 -0.2677,-0.33694 -0.60002,-0.63232 -0.39232,-0.25847 -0.84925,-0.49848 -0.50771,-0.20308 -1.08003,-0.36001 -0.64156,-0.12924 -1.32927,-0.24 -0.75233,-0.06 -1.56928,-0.10154 h -0.87694 l -2.32161,0.0831 -1.32004,0.14769 -0.55848,0.14308 -1.09388,0.36001 -0.46616,0.2677 -0.92311,0.63233 -0.41078,0.42924 -0.80772,0.96926 -0.39231,0.63694 -0.78003,1.38005 -0.39693,0.87233 -0.81233,1.86928 -0.43848,1.14004 -0.91849,2.41853 -0.51232,1.44004 -1.3385,3.55395 -0.84926,2.02622 -0.37385,0.8031 -0.68772,1.41696 -0.25846,0.41078 -0.45233,0.60925 -0.10154,-0.0692 -0.51694,-0.84002 -0.52155,-1.1308 -0.31847,-0.79849 -0.66925,-1.72159 -0.38309,-1.00618 -0.74771,-2.12314 -0.37848,-1.14004 -1.3108,-3.71087 -0.81234,-2.06776 -0.3877,-0.85848 -0.78002,-1.60159 -0.40155,-0.64156 -0.80772,-1.18618 -0.43386,-0.45233 -0.88618,-0.82156 -0.50309,-0.30001 -1.02926,-0.51694 -0.59079,-0.17077 -1.22772,-0.28155 -0.70156,-0.0692 -1.48159,-0.10154 z m -211.797,23.82993 c -0.0208,-0.0962 -0.10482,0.16544 -0.14769,0.25386 -0.0876,0.1789 -0.1512,0.36617 -0.21232,0.55386 0.0889,-0.14507 0.14796,-0.24474 0.24462,-0.40155 0.0382,-0.13572 0.14487,-0.26832 0.11539,-0.40617 z m 30.55475,5.25247 c 0.11472,0.34243 0.25222,0.67548 0.37385,1.01541 -0.0753,-0.39304 -0.19525,-0.74963 -0.37385,-1.01541 z m 74.69296,9.91875 -1.79082,0.009 -0.98772,0.0323 -0.41078,0.0277 -1.42158,0.16154 -0.45694,0.17078 -0.78002,0.42001 -0.27232,0.35078 -0.46155,0.80772 -0.21693,0.59078 -0.8031,3.04163 -0.18,1.98006 0.0923,0.90926 0.3,1.76774 0.31848,0.76156 0.75233,1.43081 0.54001,0.54002 0.69694,0.60002 0.44309,0.24 0.92772,0.44771 0.53079,0.16154 2.25237,0.53079 1.20004,0.0277 2.40007,-0.0785 1.06618,-0.28155 1.03388,-0.31847 0.44771,-0.21232 0.84002,-0.48001 0.33232,-0.28616 0.72002,-1.00157 0.39693,-0.90926 0.15232,-0.54001 0.49847,-2.3493 0.0692,-1.28312 0.009,-2.54776 -0.19847,-1.08004 -0.24001,-1.02926 -0.16154,-0.41078 -0.37847,-0.76156 -0.24001,-0.24001 -0.92772,-0.47078 -0.99234,-0.2677 -0.64155,-0.11077 -2.85701,-0.35078 z" />
    </g>
  </g>
</svg>
