<?xml version="1.0" encoding="UTF-8" standalone="no"?>
<!-- Created with Inkscape (http://www.inkscape.org/) -->

<svg
   width="1200"
   height="630"
   viewBox="0 0 1200 630"
   version="1.1"
   id="svg1"
   xml:space="preserve"
   inkscape:export-filename="og_nurfaizfoat.png"
   inkscape:export-xdpi="96"
   inkscape:export-ydpi="96"
   inkscape:version="1.3.2 (1:1.3.2+202404261509+091e20ef0f)"
   sodipodi:docname="og_image.svg"
   xmlns:inkscape="http://www.inkscape.org/namespaces/inkscape"
   xmlns:sodipodi="http://sodipodi.sourceforge.net/DTD/sodipodi-0.dtd"
   xmlns="http://www.w3.org/2000/svg"
   xmlns:svg="http://www.w3.org/2000/svg"><sodipodi:namedview
     id="namedview1"
     pagecolor="#505050"
     bordercolor="#eeeeee"
     borderopacity="1"
     inkscape:showpageshadow="0"
     inkscape:pageopacity="0"
     inkscape:pagecheckerboard="0"
     inkscape:deskcolor="#505050"
     inkscape:document-units="px"
     inkscape:zoom="0.64479167"
     inkscape:cx="517.99677"
     inkscape:cy="324.1357"
     inkscape:window-width="1920"
     inkscape:window-height="1011"
     inkscape:window-x="0"
     inkscape:window-y="0"
     inkscape:window-maximized="1"
     inkscape:current-layer="layer1" /><defs
     id="defs1" /><g
     inkscape:label="Layer 1"
     inkscape:groupmode="layer"
     id="layer1"><rect
       style="fill:#fff0cf;fill-opacity:1;stroke-width:1.33333;stroke-linecap:round"
       id="rect1"
       width="1201.2177"
       height="630.39984"
       x="0.27261713"
       y="2.677706"
       sodipodi:insensitive="true" /><text
       xml:space="preserve"
       style="font-size:44.9841px;font-family:'Liberation Sans';-inkscape-font-specification:'Liberation Sans';letter-spacing:0px;fill:#000000;fill-opacity:1;stroke-width:2.2492;stroke-linecap:round"
       x="373.45764"
       y="345.88571"
       id="text1-1"><tspan
         sodipodi:role="line"
         id="tspan1-7"
         x="373.45764"
         y="345.88571"
         style="font-style:normal;font-variant:normal;font-weight:normal;font-stretch:normal;font-size:44.9841px;font-family:serif;-inkscape-font-specification:serif;fill:#000000;fill-opacity:1;stroke-width:2.2492">Fullstack-ish Product Designer</tspan></text><text
       xml:space="preserve"
       style="font-size:80.0445px;font-family:'Liberation Sans';-inkscape-font-specification:'Liberation Sans';letter-spacing:0px;fill:#000000;fill-opacity:1;stroke-width:2.85873;stroke-linecap:round"
       x="370.58636"
       y="286.5235"
       id="text1-5"><tspan
         sodipodi:role="line"
         id="tspan1-3"
         x="370.58636"
         y="286.5235"
         style="font-style:normal;font-variant:normal;font-weight:bold;font-stretch:normal;font-size:80.0445px;font-family:'Liberation Sans';-inkscape-font-specification:'Liberation Sans Bold';fill:#000000;fill-opacity:1;stroke-width:2.85873">Nurfaiz Foat —</tspan></text><g
       style="fill:none"
       id="g1"
       transform="matrix(4.7339553,0,0,4.7339553,181.83851,219.31746)"><path
         d="M 28.832,13.6912 21.046,13.072 26.112,7.0864 c 0.68,-0.688 0.68,-1.8576 0,-2.5456 -0.68,-0.688 -1.836,-0.688 -2.516,0 L 17.68,9.6664 17.068,1.7888 C 17.068,0.7912 16.286,0 15.3,0 14.314,0 13.532,0.7912 13.532,1.7888 L 12.92,9.6664 7.004,4.5408 c -0.68,-0.688 -1.836,-0.688 -2.516,0 -0.68,0.688 -0.68,1.8576 0,2.5456 L 9.554,13.072 1.768,13.6912 C 0.782,13.6912 0,14.4824 0,15.48 c 0,0.4816 0.204,0.9632 0.51,1.2728 0.306,0.3096 0.782,0.516 1.258,0.516 l 7.786,0.6192 -5.066,5.9856 c -0.68,0.688 -0.68,1.8576 0,2.5456 0.34,0.344 0.816,0.516 1.258,0.516 0.442,0 0.918,-0.172 1.258,-0.516 l 5.916,-5.1256 0.612,7.8776 c 0,0.4816 0.204,0.9632 0.51,1.2728 0.306,0.3096 0.782,0.516 1.258,0.516 0.986,0 1.768,-0.7912 1.768,-1.7888 l 0.612,-7.8776 5.916,5.1256 c 0.34,0.344 0.816,0.516 1.258,0.516 0.442,0 0.918,-0.172 1.258,-0.516 0.68,-0.688 0.68,-1.8576 0,-2.5456 l -5.066,-5.9856 7.786,-0.6192 c 0.986,0 1.768,-0.7912 1.768,-1.7888 0,-0.9976 -0.782,-1.7888 -1.768,-1.7888 z"
         fill="#ff0000"
         fill-opacity="1"
         id="path1" /></g><rect
       style="fill:#000000;fill-opacity:1;stroke-width:1.48199;stroke-linecap:round"
       id="rect2"
       width="403.57117"
       height="80.644814"
       x="385.42056"
       y="398.38312" /><rect
       style="fill:#ffffff;fill-opacity:1;stroke:#000000;stroke-width:2.09135;stroke-linecap:round;stroke-dasharray:none;stroke-opacity:1"
       id="rect2-3"
       width="403.888"
       height="76.350151"
       x="374.84109"
       y="387.35431" /><rect
       style="fill:#ffffff;fill-opacity:0.385221;stroke:none;stroke-width:1.77375;stroke-linecap:round;stroke-dasharray:none;stroke-opacity:1"
       id="rect2-3-8"
       width="290.53247"
       height="76.350151"
       x="375.46201"
       y="125.54893" /><text
       xml:space="preserve"
       style="font-size:33.2224px;font-family:serif;-inkscape-font-specification:serif;letter-spacing:0px;fill:#ffffff;fill-opacity:1;stroke-width:1.66111;stroke-linecap:round"
       x="494.55701"
       y="437.20889"
       id="text2"><tspan
         sodipodi:role="line"
         id="tspan2"
         x="494.55701"
         y="437.20889"
         style="font-style:normal;font-variant:normal;font-weight:normal;font-stretch:normal;font-size:33.2224px;font-family:'Liberation Sans';-inkscape-font-specification:'Liberation Sans';fill:#000000;stroke-width:1.66111">Read More</tspan></text><text
       xml:space="preserve"
       style="font-size:33.2224px;font-family:serif;-inkscape-font-specification:serif;letter-spacing:0px;fill:#ffffff;fill-opacity:1;stroke-width:1.66111;stroke-linecap:round"
       x="409.1713"
       y="175.08977"
       id="text2-3"><tspan
         sodipodi:role="line"
         id="tspan2-8"
         x="409.1713"
         y="175.08977"
         style="font-style:normal;font-variant:normal;font-weight:normal;font-stretch:normal;font-size:33.2224px;font-family:'Liberation Sans';-inkscape-font-specification:'Liberation Sans';fill:#000000;stroke-width:1.66111">nurfaizfoat.com</tspan></text></g></svg>
